<?xml version="1.0" standalone="no"?>
<!DOCTYPE svg PUBLIC "-//W3C//DTD SVG 20010904//EN"
 "http://www.w3.org/TR/2001/REC-SVG-20010904/DTD/svg10.dtd">
<svg version="1.0" xmlns="http://www.w3.org/2000/svg"
 width="864.000000pt" height="289.000000pt" viewBox="0 0 864.000000 289.000000"
 preserveAspectRatio="xMidYMid meet">

<g transform="translate(0.000000,289.000000) scale(0.100000,-0.100000)"
fill="#000000" stroke="none">
<path d="M180 2806 c-32 -16 -55 -39 -77 -77 l-33 -53 0 -1186 1 -1185 22 -45
c33 -64 99 -107 179 -115 35 -3 1874 -5 4088 -3 l4025 3 48 28 c26 15 60 47
75 69 l27 42 0 1207 0 1207 -31 43 c-18 24 -51 54 -75 66 l-42 23 -4081 0
-4081 0 -45 -24z m6836 -417 c10 -17 18 -239 10 -293 l-7 -46 -193 0 -193 0
-7 68 c-12 135 -10 264 5 273 22 14 376 11 385 -2z m-5676 -41 l85 -34 2 -280
c2 -153 -1 -285 -5 -292 -19 -29 -226 -39 -319 -16 -25 7 -29 25 -38 186 -6
98 -9 108 -31 122 -18 12 -35 14 -75 8 l-52 -7 -20 -70 c-21 -76 -21 -63 15
-932 l11 -283 89 0 88 0 2 108 c2 59 1 169 -1 245 l-3 138 175 -3 c96 -2 179
-6 182 -10 4 -4 4 -136 0 -294 l-7 -286 -72 -33 -71 -32 -295 -6 -295 -7 -47
41 c-31 26 -63 69 -92 122 l-44 82 -8 275 c-12 376 -10 844 4 965 6 55 14 132
17 171 l7 71 121 39 c113 36 134 39 277 45 253 10 302 6 400 -33z m948 7 c41
-8 97 -25 125 -38 l52 -24 19 -87 c18 -83 19 -120 12 -730 -8 -724 -13 -797
-62 -840 -38 -33 -67 -41 -199 -56 -80 -9 -132 -9 -190 -1 -44 5 -141 15 -215
22 -131 11 -136 12 -168 43 -19 17 -44 52 -57 77 l-24 47 7 704 8 705 39 86
40 85 115 12 c63 6 124 13 135 15 43 8 294 -6 363 -20z m810 -711 l2 -730 98
-17 c53 -10 131 -18 172 -20 l75 -2 -3 -85 c-1 -47 -5 -108 -8 -136 l-5 -50
-317 -10 c-174 -6 -343 -9 -374 -6 l-58 4 0 106 c-1 59 -7 420 -14 802 -12
650 -11 839 6 855 6 7 309 23 383 21 l40 -1 3 -731z m1097 716 c33 -6 90 -22
127 -36 l67 -25 16 -72 c14 -63 15 -157 12 -762 -4 -776 -5 -786 -67 -836 -30
-25 -51 -31 -155 -44 -114 -15 -130 -15 -350 6 -263 25 -263 25 -314 129 l-28
55 11 710 11 710 38 76 37 77 118 12 c64 6 124 13 132 15 29 7 285 -4 345 -15z
m2051 9 c87 -6 161 -12 162 -14 2 -2 14 -156 27 -342 13 -186 27 -354 30 -373
6 -40 36 -1023 30 -1028 -1 -2 -87 -6 -189 -9 l-186 -6 0 49 c0 86 -20 478
-25 482 -6 6 -207 23 -211 19 -2 -2 -15 -107 -29 -233 -14 -126 -28 -248 -31
-271 l-5 -41 -115 -7 c-63 -4 -117 -5 -120 -2 -3 3 -1 61 5 129 6 67 23 257
36 421 24 286 43 444 101 862 14 105 31 228 38 275 l11 85 60 6 c104 10 247 9
411 -2z m-1023 -10 c45 -7 93 -23 130 -42 51 -28 64 -42 107 -114 l50 -83 -15
-227 c-19 -282 -26 -301 -117 -329 -33 -9 -61 -21 -64 -25 -2 -4 24 -28 59
-53 79 -56 90 -70 111 -130 19 -59 21 -219 6 -540 -7 -147 -14 -212 -23 -218
-14 -11 -283 -5 -294 6 -4 4 -11 130 -14 279 -9 372 -15 421 -50 462 -16 17
-46 37 -70 44 -22 7 -48 15 -57 18 -13 6 -14 -36 -10 -400 l5 -407 -188 0
-188 0 1 885 1 885 274 0 c151 0 307 -5 346 -11z m2570 -15 c163 -47 164 -48
239 -168 l66 -107 7 -182 c4 -100 5 -321 2 -492 -4 -282 -7 -323 -31 -455 -27
-143 -28 -146 -87 -236 l-60 -92 -52 -6 c-29 -3 -193 -9 -366 -12 l-314 -7 6
519 c4 285 7 684 7 886 l0 367 133 4 c366 8 352 9 450 -19z m-774 -420 c2 -2
-2 -71 -8 -153 -10 -118 -10 -186 0 -327 16 -232 16 -793 -1 -824 -12 -22 -12
-22 -188 -15 -105 5 -180 12 -184 18 -16 26 -20 220 -16 738 3 306 8 561 11
565 5 9 378 6 386 -2z"/>
<path d="M1883 1855 c-8 -24 -9 -174 -6 -474 6 -436 6 -440 27 -445 43 -12
161 -6 203 10 40 15 43 19 43 53 0 45 19 679 23 782 3 74 3 77 -24 93 -21 12
-54 16 -141 16 l-115 0 -10 -35z"/>
<path d="M3813 1878 c-4 -7 -9 -221 -11 -474 l-3 -461 23 -7 c44 -11 175 -6
211 9 34 14 36 17 41 77 5 67 27 698 26 785 0 48 -3 54 -30 68 -38 19 -244 22
-257 3z"/>
<path d="M5896 1864 c-3 -66 -9 -197 -12 -291 l-7 -173 49 0 c27 0 79 3 117 7
l67 6 0 151 c0 137 -3 163 -32 276 -17 69 -32 126 -32 127 -1 1 -33 4 -72 8
l-71 7 -7 -118z"/>
<path d="M4848 2128 c-3 -18 -3 -136 0 -262 l5 -228 76 4 c60 3 84 10 108 27
29 22 31 26 37 120 6 93 -2 196 -25 292 -8 38 -16 49 -45 62 -20 10 -59 17
-93 17 -59 0 -59 0 -63 -32z"/>
<path d="M7406 1753 c-3 -153 -9 -398 -13 -544 l-6 -266 112 -6 c108 -6 114
-6 131 15 11 14 20 47 23 88 4 36 16 157 27 270 26 262 26 495 1 608 -10 45
-21 85 -24 88 -7 7 -141 23 -203 23 l-41 1 -7 -277z"/>
</g>
</svg>
